<svg width="63" height="59" viewBox="0 0 63 59" fill="none" xmlns="http://www.w3.org/2000/svg">
<rect x="5" y="15" width="58" height="40" rx="4" fill="#008940" fill-opacity="0.5"/>
<g clip-path="url(#clip0)">
<path d="M48.4813 28.9514C47.91 28.9514 47.4462 29.4147 47.4462 29.9865V33.1506C47.4462 36.8808 45.9917 40.3858 43.35 43.0202L41.215 45.1491C41.0201 45.3432 40.9105 45.6069 40.9105 45.8818V57.9648C40.9105 58.5366 41.3743 59 41.9457 59C42.5174 59 42.9808 58.5366 42.9808 57.9648V46.3117L44.8118 44.486C47.8461 41.4606 49.5169 37.4352 49.5169 33.1506V29.9865C49.5165 29.4147 49.0531 28.9514 48.4813 28.9514Z" fill="black"/>
<path d="M48.4817 24.8107C48.2092 24.8107 47.9423 24.9215 47.7498 25.114C47.5573 25.3069 47.4465 25.5738 47.4465 25.8459C47.4465 26.1184 47.5573 26.3853 47.7498 26.5778C47.9423 26.7702 48.2092 26.881 48.4817 26.881C48.7538 26.881 49.0207 26.7702 49.2136 26.5778C49.4056 26.3853 49.5168 26.1184 49.5168 25.8459C49.5168 25.5738 49.4061 25.3069 49.2136 25.114C49.0207 24.9215 48.7538 24.8107 48.4817 24.8107Z" fill="black"/>
<path d="M4.55469 6.0271C4.28255 6.0271 4.01527 6.13749 3.8228 6.33037C3.63033 6.52284 3.51953 6.78972 3.51953 7.06226C3.51953 7.33439 3.63033 7.60126 3.8228 7.79374C4.01527 7.98621 4.28255 8.09741 4.55469 8.09741C4.82682 8.09741 5.0941 7.98662 5.28658 7.79374C5.47986 7.60126 5.58984 7.33439 5.58984 7.06226C5.58984 6.78972 5.47986 6.52284 5.28658 6.33037C5.0941 6.13749 4.82682 6.0271 4.55469 6.0271Z" fill="black"/>
<path d="M42.6371 37.9871C43.1672 37.4566 43.4596 36.7514 43.4596 36.0013C43.4596 35.5917 43.3719 35.1963 43.2065 34.8348C43.4774 34.7021 43.7313 34.5246 43.9562 34.2998C45.0507 33.2048 45.0507 31.4232 43.9562 30.3282L40.1471 26.5195C40.9081 26.4144 41.623 26.0052 42.0933 25.334C42.5356 24.7024 42.7014 23.9365 42.5599 23.1783C42.418 22.4202 41.9873 21.7659 41.3464 21.3361L37.3607 18.6633C37.3457 18.6532 37.3303 18.6439 37.3154 18.6342V12.7681C37.4201 11.7516 38.2814 10.9562 39.325 10.9562C40.4394 10.9562 41.3456 11.8628 41.3456 12.9768V17.9043C41.3456 18.4761 41.8094 18.9395 42.3808 18.9395C42.9525 18.9395 43.4159 18.4761 43.4159 17.9043V15.961C43.5207 14.9444 44.3819 14.149 45.4256 14.149C46.54 14.149 47.4462 15.0556 47.4462 16.1696V21.7053C47.4462 22.277 47.91 22.7404 48.4813 22.7404C49.0531 22.7404 49.5165 22.277 49.5165 21.7053V16.1696C49.5165 13.9137 47.6815 12.0787 45.4256 12.0787C44.6888 12.0787 43.9974 12.2756 43.3993 12.6181C43.217 10.5296 41.46 8.8859 39.3254 8.8859C38.5741 8.8859 37.8698 9.0901 37.264 9.44513C36.9535 7.49532 35.2608 6 33.2249 6C31.1886 6 29.4959 7.49532 29.1854 9.44513C28.5796 9.09051 27.8756 8.8859 27.1239 8.8859C25.6258 8.8859 24.2894 9.70675 23.5769 10.9421L18.9519 6.31702C18.5475 5.91266 17.8925 5.91266 17.4881 6.31702C17.0837 6.72137 17.0837 7.37684 17.4881 7.78079L28.4935 18.7866C28.6876 18.9807 28.9508 19.0899 29.2254 19.0899H29.227L31.9342 19.0858H31.9451C33.4683 19.0858 34.9422 19.5343 36.2074 20.3826L40.1932 23.0554C40.3683 23.1727 40.4855 23.3514 40.5244 23.558C40.5632 23.7651 40.5179 23.9741 40.397 24.1468C40.1629 24.4808 39.7063 24.577 39.3578 24.3655L37.6348 23.3207C37.0651 22.9753 36.3534 23.1056 35.9426 23.6296C35.5318 24.1536 35.5754 24.8754 36.0461 25.3461L42.492 31.792C42.7795 32.0799 42.7795 32.5481 42.492 32.8356C42.2259 33.1017 41.8062 33.1211 41.5171 32.8955L38.1471 29.5259C37.7428 29.122 37.0877 29.122 36.6834 29.5259C36.6826 29.5268 36.6822 29.5272 36.6818 29.5276C36.6805 29.5288 36.6797 29.5296 36.6789 29.5304C36.2746 29.9348 36.2746 30.5902 36.6789 30.9942L39.9841 34.2998C40.0266 34.3423 40.0703 34.3823 40.1147 34.4215L41.173 35.4797C41.3121 35.6192 41.3889 35.8044 41.3889 36.0013C41.3889 36.1987 41.3121 36.3839 41.1726 36.5234C40.8851 36.8109 40.4168 36.8109 40.1289 36.5234L39.0711 35.4656C39.0319 35.4211 38.9918 35.377 38.9494 35.3345L35.6442 32.0293C35.2398 31.6254 34.5843 31.6254 34.18 32.0293C34.1792 32.0301 34.1788 32.0309 34.178 32.0318C34.1772 32.0326 34.1764 32.033 34.1755 32.0338C33.7712 32.4381 33.7712 33.0936 34.1755 33.498L37.5455 36.8679C37.7711 37.157 37.7513 37.5763 37.4852 37.8424C37.1977 38.1299 36.7291 38.1299 36.4416 37.8424L35.2576 36.6584C35.2184 36.6135 35.1784 36.5699 35.1359 36.5278L33.1408 34.5327C32.7364 34.1283 32.081 34.1283 31.6766 34.5327C31.6758 34.5335 31.675 34.5343 31.6742 34.5351C31.6738 34.5359 31.673 34.5363 31.6726 34.5372C31.2682 34.9411 31.2682 35.5966 31.6726 36.0009L33.732 38.0607C33.8331 38.1897 33.888 38.347 33.888 38.5136C33.888 38.7105 33.8112 38.8957 33.6717 39.0352C33.3842 39.3231 32.916 39.3227 32.6281 39.0352L25.6606 32.0677C24.2332 30.64 23.416 28.6635 23.4188 26.6449L23.4212 24.8952C23.4216 24.6203 23.3129 24.3562 23.118 24.1617L21.6158 22.6595C21.6158 22.6591 21.6154 22.6587 21.615 22.6587L8.21455 9.25791C7.8102 8.85355 7.15514 8.85355 6.75078 9.25791C6.34642 9.66187 6.34642 10.3173 6.75078 10.7217L18.1913 22.1622C17.2548 22.4246 16.4485 23.0004 15.8913 23.814C15.2544 24.7432 15.0235 25.8637 15.2415 26.9688L16.8415 35.0826C17.4598 38.2168 18.9822 41.0655 21.2438 43.321L24.2433 46.3117V57.9648C24.2433 58.5366 24.7067 59 25.2785 59C25.8498 59 26.3136 58.5366 26.3136 57.9648V45.8818C26.3136 45.6069 26.204 45.3432 26.0095 45.1491L22.7059 41.8548C20.7363 39.8913 19.4112 37.4109 18.873 34.6819L17.273 26.5685C17.1634 26.0133 17.2794 25.4508 17.5993 24.9842C17.9187 24.5176 18.4019 24.2066 18.9587 24.1084C19.264 24.0542 19.5693 24.0679 19.8657 24.148L20.3202 24.2911L21.3509 25.3218L21.3489 26.6417C21.3453 29.2065 22.3833 31.718 24.1972 33.5315L25.553 34.8873L31.1647 40.4994C31.7122 41.0469 32.4315 41.3207 33.1505 41.3207C33.8698 41.3207 34.5892 41.0469 35.1367 40.4994C35.3449 40.2908 35.516 40.0554 35.6474 39.8007C36.0578 40.0182 36.5111 40.1274 36.9644 40.1274C37.6833 40.1274 38.4027 39.8537 38.9502 39.3062C39.175 39.0809 39.3529 38.827 39.4856 38.5561C39.8547 38.7239 40.253 38.8084 40.6517 38.8084C41.3703 38.8084 42.0896 38.5346 42.6371 37.9871ZM25.1555 12.5203C25.3638 11.6165 26.1786 10.9562 27.1243 10.9562C28.168 10.9562 29.0297 11.752 29.134 12.7685V16.4992L25.1555 12.5203ZM31.9314 17.0155L31.2148 17.0167V12.9768C31.2148 12.8822 31.2108 12.7888 31.2043 12.6958V10.0909C31.2043 8.97688 32.1105 8.07031 33.2249 8.07031C34.3389 8.07031 35.2451 8.97688 35.2451 10.0909V12.6945C35.239 12.788 35.2346 12.8818 35.2346 12.9768V17.5889C34.1865 17.2116 33.0769 17.0155 31.9451 17.0155C31.9407 17.0155 31.9358 17.0155 31.9314 17.0155Z" fill="black"/>
</g>
<defs>
<clipPath id="clip0">
<rect width="53" height="53" fill="white" transform="translate(0 6)"/>
</clipPath>
</defs>
</svg>
