<svg width="63" height="61" viewBox="0 0 63 61" fill="none" xmlns="http://www.w3.org/2000/svg">
<rect x="5" y="15" width="58" height="40" rx="4" fill="#008940" fill-opacity="0.5"/>
<path d="M51.6562 8.45312H5.34375C4.39924 8.45419 3.49372 8.82986 2.82585 9.49773C2.15799 10.1656 1.78231 11.0711 1.78125 12.0156V44.0781C1.78231 45.0226 2.15799 45.9282 2.82585 46.596C3.49372 47.2639 4.39924 47.6396 5.34375 47.6406H19.1337L17.2128 52.1228C16.6358 52.2135 16.1102 52.5071 15.7303 52.9507C15.3505 53.3943 15.1414 53.9589 15.1406 54.543V56.5469C15.1406 56.7831 15.2345 57.0096 15.4015 57.1766C15.5685 57.3437 15.795 57.4375 16.0312 57.4375H40.9688C41.205 57.4375 41.4315 57.3437 41.5985 57.1766C41.7655 57.0096 41.8594 56.7831 41.8594 56.5469V54.543C41.8586 53.9589 41.6495 53.3943 41.2697 52.9507C40.8898 52.5071 40.3642 52.2135 39.7872 52.1228L37.8663 47.6406H51.6562C52.6008 47.6396 53.5063 47.2639 54.1741 46.596C54.842 45.9282 55.2177 45.0226 55.2188 44.0781V12.0156C55.2177 11.0711 54.842 10.1656 54.1741 9.49773C53.5063 8.82986 52.6008 8.45419 51.6562 8.45312ZM5.34375 10.2344H51.6562C52.1285 10.2349 52.5812 10.4228 52.9152 10.7567C53.2491 11.0906 53.4369 11.5434 53.4375 12.0156V41.4062H33.8438V35.5408L34.7772 36.4743C35.2104 36.9098 35.7257 37.2551 36.2933 37.4902C36.8608 37.7252 37.4694 37.8454 38.0837 37.8436H38.3175C39.2768 37.8416 40.2124 37.5454 40.9981 36.9951C41.7839 36.4448 42.3819 35.6667 42.7117 34.7659L45.3682 27.4605C45.4478 27.2421 45.4388 27.0012 45.3429 26.7894C45.2471 26.5776 45.0722 26.4117 44.8555 26.3273L45.376 24.7659C45.413 24.655 45.4278 24.5378 45.4195 24.4211C45.4112 24.3044 45.38 24.1906 45.3277 24.0859L44.6721 22.7747C45.1532 22.278 45.4221 21.6134 45.4219 20.9219V19.4103L46.3168 18.0678C46.7077 17.4815 46.9321 16.8002 46.9661 16.0964C47.0001 15.3926 46.8425 14.6928 46.51 14.0716C46.1775 13.4504 45.6827 12.931 45.0783 12.569C44.4738 12.2069 43.7825 12.0156 43.0779 12.0156H42.4221C41.7175 12.0156 41.0262 12.2069 40.4217 12.569C39.8173 12.931 39.3225 13.4504 38.99 14.0716C38.6575 14.6928 38.4999 15.3926 38.5339 16.0964C38.5679 16.8002 38.7923 17.4815 39.1832 18.0678L40.0781 19.4103V20.9219C40.0776 21.5404 40.2925 22.1397 40.6861 22.6168L39.4483 23.8546C39.3314 23.9716 39.2493 24.1188 39.2113 24.2798C39.1733 24.4407 39.1809 24.6091 39.2333 24.766L39.7543 26.3292C39.6327 26.3763 39.523 26.4496 39.433 26.5439C39.3429 26.6382 39.2748 26.7511 39.2333 26.8747L38.0278 30.4909L36.1399 27.659C35.607 26.8567 34.8381 26.2396 33.9395 25.893L31.068 24.7797V22.9727C31.6414 22.3218 31.958 21.4844 31.9586 20.6171V19.1902L32.8635 18.2852C33.4507 17.698 33.7986 16.9134 33.8396 16.084C33.8806 15.2546 33.6117 14.4396 33.0852 13.7973C32.5587 13.1551 31.8123 12.7316 30.9909 12.6091C30.1696 12.4866 29.332 12.6738 28.6411 13.1345L28.1265 13.4775H26.5698C26.0391 13.4775 25.5184 13.6216 25.0632 13.8943C24.6079 14.167 24.2352 14.5581 23.9848 15.026C23.7344 15.4939 23.6157 16.021 23.6413 16.551C23.6669 17.0811 23.8359 17.5942 24.1303 18.0358L24.8336 19.0909V20.6171C24.8343 21.4844 25.1509 22.3218 25.7243 22.9727V24.7329L21.8407 25.8426C21.2177 26.0213 20.6386 26.3273 20.1399 26.7412C19.6412 27.1551 19.2337 27.6679 18.9431 28.2473L16.4779 33.1778C16.1849 33.7654 16.032 34.413 16.0312 35.0697V35.2367C16.0302 36.1804 16.3451 37.0973 16.9259 37.8411C17.5067 38.585 18.3199 39.1129 19.2357 39.3407L23.1562 40.3204V41.4062H3.5625V12.0156C3.56306 11.5434 3.75091 11.0906 4.08483 10.7567C4.41876 10.4228 4.87151 10.2349 5.34375 10.2344ZM30.1774 20.6171C30.1771 20.8676 30.1241 21.1153 30.0217 21.344C29.9194 21.5727 29.77 21.7773 29.5833 21.9444C29.49 22.028 29.4154 22.1303 29.3643 22.2446C29.3132 22.359 29.2867 22.4828 29.2868 22.6081V24.4955L27.5055 24.488V22.6081C27.5055 22.4828 27.4791 22.359 27.428 22.2446C27.3769 22.1303 27.3022 22.028 27.2089 21.9444C27.0223 21.7773 26.8729 21.5727 26.7705 21.344C26.6682 21.1153 26.6151 20.8676 26.6149 20.6171V20.3806L27.837 19.7118H30.1774V20.6171ZM31.604 17.0254L30.6991 17.9304H27.6094C27.46 17.9304 27.313 17.968 27.1819 18.0396L26.5123 18.406C26.498 18.3788 26.4823 18.3525 26.4653 18.3269L25.6124 17.0477C25.4968 16.8744 25.4305 16.673 25.4204 16.4649C25.4103 16.2569 25.4569 16.05 25.5552 15.8664C25.6535 15.6827 25.7998 15.5292 25.9784 15.4222C26.1571 15.3151 26.3615 15.2586 26.5698 15.2586H28.3961C28.5719 15.2586 28.7438 15.2065 28.8901 15.109L29.6291 14.6164C29.9523 14.4012 30.3439 14.3138 30.7279 14.3712C31.1119 14.4286 31.4608 14.6267 31.707 14.9269C31.9531 15.2272 32.0789 15.6082 32.0599 15.996C32.0409 16.3838 31.8784 16.7507 31.604 17.0254ZM26.7926 26.28H30.0106L33.2957 27.5535C33.8519 27.7681 34.3279 28.1501 34.6578 28.6467L37.5559 32.9939C37.6484 33.1325 37.7779 33.2425 37.9298 33.3112C38.0817 33.3799 38.2499 33.4046 38.4151 33.3825C38.5803 33.3603 38.736 33.2923 38.8645 33.186C38.9929 33.0798 39.089 32.9396 39.1417 32.7814L40.72 28.0469H43.2598L41.0378 34.1571C40.8336 34.7148 40.4634 35.1964 39.977 35.5371C39.4906 35.8778 38.9114 36.0612 38.3176 36.0625H38.0838C37.7035 36.0635 37.3268 35.9891 36.9755 35.8436C36.6242 35.6981 36.3052 35.4844 36.037 35.2147L33.8439 33.0216V30.7188C33.8439 30.587 33.8146 30.4568 33.7583 30.3377C33.7019 30.2186 33.6198 30.1135 33.5179 30.03C33.416 29.9464 33.2968 29.8865 33.169 29.8546C33.0411 29.8227 32.9078 29.8195 32.7786 29.8454L28.5 30.7012L24.2215 29.8454L24.2172 29.8447C24.2043 29.8422 24.1914 29.8405 24.1785 29.8386C24.1402 29.832 24.1014 29.8286 24.0626 29.8283C23.9062 29.8256 23.7518 29.8641 23.615 29.94C23.4782 30.0158 23.3638 30.1264 23.2833 30.2605L20.6114 34.7136C20.5428 34.828 20.5007 34.9563 20.4883 35.0891C20.4759 35.2219 20.4935 35.3558 20.5398 35.4809C20.586 35.606 20.6598 35.7191 20.7556 35.8119C20.8515 35.9046 20.9669 35.9747 21.0935 36.0169L23.1206 36.6926L23.1429 38.4809L19.6683 37.6125C19.138 37.4807 18.667 37.175 18.3307 36.7443C17.9943 36.3136 17.8119 35.7826 17.8125 35.2361V35.0691C17.813 34.689 17.9014 34.3141 18.071 33.9739L20.5363 29.0434C20.7161 28.6847 20.9684 28.3672 21.2771 28.1109C21.5859 27.8547 21.9444 27.6653 22.3301 27.5546L26.7926 26.28ZM41.8594 20.9219V20.0312H43.6406V20.9219C43.6406 21.1581 43.5468 21.3846 43.3798 21.5516C43.2127 21.7187 42.9862 21.8125 42.75 21.8125C42.5138 21.8125 42.2873 21.7187 42.1202 21.5516C41.9532 21.3846 41.8594 21.1581 41.8594 20.9219ZM44.8348 17.0797L44.0547 18.25H41.4453L40.6652 17.0797C40.4532 16.7617 40.3315 16.3921 40.3131 16.0104C40.2946 15.6287 40.3802 15.2491 40.5605 14.9121C40.7408 14.5752 41.0092 14.2935 41.3371 14.0971C41.665 13.9006 42.04 13.7969 42.4221 13.7969H43.0779C43.46 13.7969 43.835 13.9006 44.1629 14.0971C44.4908 14.2935 44.7592 14.5752 44.9395 14.9121C45.1198 15.2491 45.2054 15.6287 45.1869 16.0104C45.1685 16.3921 45.0468 16.7617 44.8348 17.0797ZM41.0971 24.725L42.2282 23.5938H43.0902L43.5697 24.5527L42.9987 26.2656H41.6107L41.0971 24.725ZM28.4555 37.8351L28.4099 36.0399C28.4041 35.8076 28.3077 35.5867 28.1413 35.4245C27.9749 35.2622 27.7517 35.1715 27.5193 35.1715H24.9375V31.8052L28.3253 32.4827C28.4406 32.5058 28.5594 32.5058 28.6747 32.4827L32.0625 31.8052V37.1136L28.4555 37.8351ZM22.7109 34.678L23.1562 33.9342V34.8268L22.7109 34.678ZM24.9264 38.7344L24.9048 36.9531H26.6503L26.6955 38.7344H24.9264ZM24.9375 40.5156H27.6094C27.7263 40.5157 27.8421 40.4927 27.9502 40.448C28.0582 40.4033 28.1564 40.3376 28.239 40.2549C28.3217 40.1722 28.3872 40.074 28.4318 39.9659C28.4764 39.8578 28.4993 39.7419 28.4991 39.625H28.5071C28.5632 39.6245 28.6191 39.6187 28.6741 39.6077L32.0625 38.9302V41.4062H24.9375V40.5156ZM40.0781 55.6562H16.9219V54.543C16.9221 54.3659 16.9925 54.1961 17.1177 54.0708C17.2429 53.9456 17.4127 53.8752 17.5898 53.875H39.4102C39.5873 53.8752 39.7571 53.9456 39.8823 54.0708C40.0075 54.1961 40.0779 54.3659 40.0781 54.543V55.6562ZM37.8369 52.0938H19.1631L21.0716 47.6406H24.1365C24.3414 48.6467 24.8877 49.551 25.6829 50.2005C26.4781 50.8501 27.4733 51.2048 28.5 51.2048C29.5267 51.2048 30.5219 50.8501 31.3171 50.2005C32.1123 49.551 32.6586 48.6467 32.8635 47.6406H35.9284L37.8369 52.0938ZM25.9804 47.6406H31.0189C30.8348 48.1617 30.4937 48.6128 30.0425 48.9319C29.5913 49.251 29.0523 49.4224 28.4997 49.4224C27.947 49.4224 27.408 49.251 26.9568 48.9319C26.5057 48.6128 26.1645 48.1617 25.9804 47.6406ZM53.4375 44.0781C53.4369 44.5504 53.2491 45.0031 52.9152 45.337C52.5812 45.671 52.1285 45.8588 51.6562 45.8594H5.34375C4.87151 45.8588 4.41876 45.671 4.08483 45.337C3.75091 45.0031 3.56306 44.5504 3.5625 44.0781V43.1875H53.4375V44.0781Z" fill="black"/>
</svg>
