<svg width="63" height="61" viewBox="0 0 63 61" fill="none" xmlns="http://www.w3.org/2000/svg">
<rect x="5" y="15" width="58" height="40" rx="4" fill="#008940" fill-opacity="0.5"/>
<path d="M25.6501 31.55C28.2735 31.55 30.4001 29.4233 30.4001 26.8C30.4001 24.1766 28.2735 22.05 25.6501 22.05C23.0268 22.05 20.9001 24.1766 20.9001 26.8C20.9033 29.422 23.0281 31.5468 25.6501 31.55ZM25.6501 23.95C27.2242 23.95 28.5001 25.226 28.5001 26.8C28.5001 28.374 27.2242 29.65 25.6501 29.65C24.0761 29.65 22.8001 28.374 22.8001 26.8C22.8001 25.226 24.0761 23.95 25.6501 23.95Z" fill="black"/>
<path d="M36.1001 32.5C37.6741 32.5 38.9501 31.224 38.9501 29.65C38.9501 28.076 37.6741 26.8 36.1001 26.8C34.5261 26.8 33.2501 28.076 33.2501 29.65C33.2501 31.224 34.5261 32.5 36.1001 32.5ZM36.1001 28.7C36.6248 28.7 37.0501 29.1253 37.0501 29.65C37.0501 30.1747 36.6248 30.6 36.1001 30.6C35.5754 30.6 35.1501 30.1747 35.1501 29.65C35.1501 29.1253 35.5754 28.7 36.1001 28.7Z" fill="black"/>
<path d="M18.0501 37.25C19.6241 37.25 20.9001 35.974 20.9001 34.4C20.9001 32.826 19.6241 31.55 18.0501 31.55C16.4761 31.55 15.2001 32.826 15.2001 34.4C15.2001 35.974 16.4761 37.25 18.0501 37.25ZM18.0501 33.45C18.5747 33.45 19.0001 33.8753 19.0001 34.4C19.0001 34.9247 18.5747 35.35 18.0501 35.35C17.5254 35.35 17.1001 34.9247 17.1001 34.4C17.1001 33.8753 17.5254 33.45 18.0501 33.45Z" fill="black"/>
<path d="M23.7501 39.15C23.7501 42.298 26.3021 44.85 29.4501 44.85C32.5981 44.85 35.1501 42.298 35.1501 39.15C35.1501 36.002 32.5981 33.45 29.4501 33.45C26.3034 33.4531 23.7533 36.0033 23.7501 39.15ZM33.2501 39.15C33.2501 41.2487 31.5488 42.95 29.4501 42.95C27.3514 42.95 25.6501 41.2487 25.6501 39.15C25.6501 37.0513 27.3514 35.35 29.4501 35.35C31.5488 35.35 33.2501 37.0513 33.2501 39.15Z" fill="black"/>
<path d="M3.7989 36.2991C4.50429 36.3007 5.19579 36.1031 5.7939 35.7291C6.07511 35.526 6.41224 35.4149 6.7591 35.4109C7.977 35.4745 9.78485 35.6094 11.7485 35.8859C11.8855 36.5808 12.067 37.2662 12.2919 37.9379C10.6513 39.2232 9.1322 40.2492 8.15085 40.8829C7.89903 41.0221 7.6104 41.0801 7.32435 41.0491C6.33581 40.999 5.3659 41.3313 4.6159 41.9773C3.41079 43.0102 2.97933 44.686 3.53575 46.1725C3.92489 47.2213 4.75642 48.0454 5.80872 48.4251C6.86102 48.8048 8.02717 48.7015 8.99635 48.1428C9.61734 47.792 10.125 47.2708 10.4594 46.6408C10.6005 46.3305 10.8324 46.0702 11.1244 45.8941C12.0544 45.4191 14.3924 44.3931 15.7072 43.8355C16.172 44.354 16.6685 44.8433 17.1939 45.3004C16.3817 47.3201 15.5286 49.0453 15.0621 49.944C14.9185 50.1888 14.7 50.381 14.4389 50.4921C13.2969 51.073 12.5231 52.1886 12.3791 53.4617C12.2351 54.7347 12.7402 55.995 13.7236 56.8163C14.4083 57.3805 15.2674 57.69 16.1546 57.6922C17.1808 57.6892 18.1623 57.2721 18.8766 56.5355C19.5909 55.7988 19.9776 54.8049 19.9489 53.7791C19.9156 53.4342 19.9878 53.0874 20.156 52.7845C20.821 51.7585 21.8451 50.2565 23.0678 48.6928C23.7296 48.9192 24.4052 49.1036 25.0903 49.2448C25.2224 50.4085 25.5349 53.2348 25.5853 54.3244C25.5832 54.6046 25.4931 54.8771 25.3278 55.1034C24.623 56.1768 24.5061 57.533 25.0168 58.7112C25.5275 59.8894 26.5972 60.7312 27.8624 60.9507C28.0729 60.9839 28.2858 61.0001 28.4989 60.9991C29.5074 61.0014 30.4753 60.6018 31.1884 59.8886C31.9016 59.1755 32.3012 58.2076 32.2989 57.1991C32.3016 56.4829 32.0988 55.781 31.7146 55.1766C31.5207 54.9047 31.4155 54.5795 31.4135 54.2456C31.4772 53.0267 31.6092 51.2208 31.8885 49.2562C32.5827 49.1127 33.2671 48.9255 33.9376 48.6957C35.2828 50.4123 36.3469 52.0102 36.8912 52.8614C37.0306 53.1082 37.0876 53.3932 37.0536 53.6746C36.9978 54.7213 37.3753 55.7448 38.0974 56.5045C38.8195 57.2642 39.8226 57.6931 40.8708 57.6903C41.3151 57.691 41.7559 57.6119 42.1723 57.4566C43.2223 57.0675 44.0473 56.235 44.4269 55.1815C44.8065 54.128 44.7021 52.9607 44.1416 51.9912C43.7924 51.3778 43.2766 50.8758 42.6539 50.5434C42.3375 50.3998 42.0724 50.1632 41.8939 49.8651C41.3391 48.7774 40.5506 47.1424 39.8039 45.2966C40.3301 44.8363 40.8269 44.3435 41.2916 43.8212C43.5716 44.8102 45.2579 45.5778 45.9361 45.9321C46.1837 46.0766 46.378 46.2972 46.49 46.561C47.0657 47.6936 48.1674 48.4653 49.4286 48.6193C50.6898 48.7733 51.9448 48.2894 52.7761 47.3286C53.5158 46.4694 53.8333 45.3249 53.6418 44.2075C53.4503 43.09 52.7698 42.1165 51.7863 41.5526C51.1623 41.1905 50.4473 41.0157 49.7267 41.0491C49.401 41.0808 49.0737 41.0093 48.7909 40.8449C47.3355 39.9034 45.959 38.9268 44.7135 37.9312C44.935 37.2618 45.1136 36.5789 45.2484 35.8868C47.4049 35.5809 49.3182 35.4584 50.3261 35.4118C50.6095 35.4133 50.8849 35.5067 51.1108 35.6778C52.4684 36.5672 54.241 36.4961 55.5231 35.5009C56.8052 34.5058 57.3137 32.8062 56.7889 31.2704C56.2641 29.7346 54.8219 28.7016 53.1989 28.6991C52.4935 28.6974 51.8019 28.895 51.2039 29.2691C50.9208 29.4686 50.5849 29.5793 50.2387 29.5874C49.0208 29.5237 47.213 29.3898 45.2503 29.1124C45.1134 28.4171 44.9319 27.7314 44.7069 27.0594C46.3456 25.776 47.8647 24.749 48.847 24.1144C49.0976 23.9749 49.3855 23.9171 49.6706 23.9491C50.6593 24.0012 51.6297 23.6682 52.3781 23.02C53.5832 21.9871 54.0147 20.3113 53.4583 18.8248C53.0678 17.7768 52.2361 16.9537 51.184 16.5741C50.132 16.1946 48.9663 16.2972 47.9967 16.8545C47.3764 17.2059 46.8692 17.7269 46.5347 18.3565C46.3935 18.6668 46.1616 18.9271 45.8697 19.1032C44.9396 19.5782 42.6017 20.6042 41.2868 21.1618C40.8232 20.6437 40.3279 20.1548 39.8039 19.6979C40.6162 17.6782 41.4693 15.953 41.9357 15.0543C42.0796 14.8098 42.298 14.6177 42.5589 14.5061C44.0074 13.7744 44.8313 12.2035 44.6099 10.5959C44.3885 8.98824 43.1706 7.69861 41.5782 7.38568C39.9858 7.07275 38.3705 7.80558 37.5572 9.20988C37.2021 9.8185 37.026 10.5149 37.0489 11.2191C37.0822 11.564 37.01 11.9109 36.8418 12.2138C36.1768 13.2398 35.1536 14.7408 33.93 16.3045C33.268 16.0785 32.5925 15.8942 31.9075 15.7525C31.7755 14.584 31.462 11.7502 31.4126 10.6672C31.4145 10.3912 31.5036 10.1229 31.6671 9.90053C32.5647 8.54516 32.5007 6.76896 31.5079 5.4817C30.5152 4.19444 28.8135 3.68127 27.2746 4.20504C25.7356 4.72882 24.7003 6.17351 24.6989 7.79913C24.6966 8.5141 24.8987 9.21483 25.2813 9.81883C25.4764 10.0923 25.5823 10.4195 25.5843 10.7555C25.5302 11.7948 25.2509 14.3332 25.0761 15.7497C24.394 15.8913 23.7217 16.076 23.063 16.3026C21.7188 14.5926 20.6548 12.989 20.1095 12.1368C19.9711 11.8903 19.9148 11.6062 19.9489 11.3255C20.0392 9.70537 19.0908 8.20662 17.5879 7.59465C16.0851 6.98267 14.3594 7.39251 13.2922 8.61488C12.225 9.83725 12.0518 11.6024 12.861 13.0089C13.2109 13.6222 13.7274 14.1238 14.3506 14.4558C14.667 14.5988 14.9322 14.8352 15.1106 15.1331C15.6654 16.2209 16.4548 17.8568 17.2006 19.7026C16.6747 20.1626 16.1782 20.655 15.7138 21.177C14.6403 20.7115 12.0392 19.5734 11.0683 19.0661C10.8207 18.9217 10.6265 18.7011 10.5145 18.4372C9.7818 16.9867 8.20879 16.1617 6.59898 16.3835C4.98916 16.6053 3.69792 17.8251 3.38486 19.4197C3.07181 21.0142 3.80604 22.6316 5.2125 23.4456C5.83694 23.8065 6.55159 23.9812 7.2721 23.9491C7.59705 23.9185 7.92346 23.9899 8.20595 24.1534C9.61305 25.0555 10.9736 26.0283 12.2824 27.068C12.0615 27.7375 11.8831 28.4203 11.7485 29.1124C9.5958 29.4173 7.6806 29.5399 6.6717 29.5874C6.38848 29.5845 6.11357 29.4913 5.887 29.3214C4.52945 28.4312 2.75634 28.5017 1.47377 29.4969C0.191204 30.4921 -0.317532 32.1921 0.207542 33.7282C0.732616 35.2643 2.17552 36.2973 3.7989 36.2991ZM18.5619 51.7461C18.1783 52.3727 17.999 53.1031 18.0489 53.8361C18.0604 54.1875 17.9721 54.535 17.7943 54.8384C17.3858 55.5381 16.5785 55.9017 15.7838 55.7441C14.9891 55.5865 14.3817 54.9422 14.2712 54.1396C14.1607 53.3369 14.5713 52.5525 15.2939 52.186C15.9155 51.8966 16.4262 51.4132 16.7493 50.8085C17.2785 49.7891 18.0128 48.2843 18.7443 46.5335C19.5303 47.0798 20.3606 47.5593 21.2267 47.967C20.1142 49.4186 19.1889 50.7857 18.5619 51.7461ZM40.1982 50.7287C40.5498 51.3743 41.0932 51.8948 41.7533 52.2183C42.063 52.3834 42.3193 52.6331 42.4924 52.9384C42.8974 53.6417 42.8109 54.5247 42.2771 55.1361C41.7433 55.7475 40.8801 55.9523 40.1285 55.6459C39.377 55.3394 38.903 54.5895 38.9489 53.7791C39.0086 53.0964 38.8452 52.4127 38.4834 51.8307C37.9732 51.0327 37.0061 49.5773 35.7778 47.9727C36.6428 47.5626 37.4716 47.0802 38.2554 46.5306C38.9603 48.2235 39.6795 49.7103 40.1982 50.7287ZM50.1361 31.4817C50.8707 31.5015 51.5931 31.2913 52.2024 30.8803C53.0062 30.4088 54.0313 30.5716 54.6496 31.2689C55.2746 31.9895 55.2684 33.0618 54.6351 33.7752C54.0019 34.4886 52.9378 34.6218 52.1482 34.0866C51.5858 33.6959 50.9128 33.4961 50.2283 33.5166C49.283 33.5593 47.5407 33.6695 45.5372 33.9308C45.5761 33.4558 45.5979 32.9808 45.5979 32.4991C45.5979 32.0175 45.5771 31.5406 45.5372 31.0665C47.3498 31.3021 48.9952 31.4218 50.1361 31.4817ZM38.4359 13.2521C38.8195 12.6255 38.9988 11.8951 38.9489 11.1621C38.9374 10.8107 39.0257 10.4632 39.2035 10.1599C39.612 9.46019 40.4193 9.09652 41.214 9.25415C42.0087 9.41178 42.6161 10.056 42.7266 10.8587C42.8371 11.6613 42.4265 12.4457 41.7039 12.8123C41.083 13.1022 40.5727 13.5855 40.2495 14.1898C39.7203 15.2091 38.986 16.7139 38.2592 18.4648C37.4732 17.9185 36.6429 17.439 35.7769 17.0312C36.8836 15.5796 37.8089 14.2126 38.4359 13.2521ZM16.7997 14.2696C16.4483 13.6243 15.9052 13.1041 15.2455 12.7809C14.9357 12.6153 14.6791 12.3653 14.5054 12.0599C14.1003 11.3559 14.1875 10.4723 14.7224 9.86109C15.2572 9.24987 16.1215 9.04621 16.873 9.35429C17.6244 9.66237 18.097 10.4141 18.0489 11.2248C17.9894 11.9073 18.1527 12.5906 18.5144 13.1723C19.1319 14.1375 20.0667 15.5255 21.2219 17.0322C20.3563 17.4411 19.5266 17.9219 18.7415 18.4695C18.0385 16.7757 17.3193 15.288 16.7997 14.2696ZM9.23765 22.5564C8.62479 22.1731 7.90557 21.9954 7.1847 22.0491C6.82586 22.0674 6.46952 21.9802 6.15965 21.7983C5.46162 21.3892 5.09924 20.583 5.25669 19.7894C5.41415 18.9957 6.0569 18.3889 6.85825 18.2773C7.65959 18.1657 8.44372 18.5738 8.81205 19.2941C9.10126 19.9183 9.58533 20.4317 10.1915 20.7571C11.1719 21.2682 13.5944 22.3332 14.951 22.9222C15.7089 23.2466 16.5896 23.0451 17.1312 22.4234C19.31 19.9611 22.23 18.2737 25.4513 17.6155C26.2651 17.4586 26.8833 16.7923 26.9789 15.9691C27.1433 14.527 27.4273 11.9449 27.4834 10.8543C27.5044 10.1237 27.2947 9.40501 26.8839 8.80043C26.6954 8.50066 26.5965 8.15325 26.5989 7.79913C26.6019 6.98668 27.1212 6.26606 27.891 6.00611C28.6607 5.74616 29.5106 6.00441 30.0056 6.64868C30.5005 7.29295 30.5311 8.18065 30.0816 8.85743C29.6924 9.4131 29.4926 10.0793 29.5116 10.7574C29.562 11.8566 29.8498 14.4957 30.017 15.971C30.1137 16.7929 30.7312 17.4576 31.5437 17.6145C34.764 18.2719 37.6832 19.9588 39.8609 22.4206C40.4045 23.0424 41.2869 23.243 42.0459 22.9174C43.3759 22.3379 45.7509 21.291 46.7332 20.7932C47.3701 20.4434 47.8836 19.9056 48.2038 19.2533C48.3715 18.9391 48.6253 18.6791 48.9353 18.5037C49.7809 18.0116 50.8621 18.242 51.4334 19.0363C52.0048 19.8306 51.8796 20.9289 51.1441 21.5741C50.766 21.9022 50.2761 22.0723 49.7761 22.0491C49.0909 21.9887 48.4046 22.151 47.8191 22.5118C46.7988 23.1682 45.2265 24.2294 43.5308 25.5584C42.8989 26.0617 42.6523 26.9083 42.9151 27.6722C43.9601 30.804 43.9601 34.1904 42.9151 37.3223C42.654 38.0853 42.9004 38.9301 43.5308 39.4332C44.8332 40.4554 46.2573 41.4662 47.7621 42.439C48.3749 42.8209 49.0927 42.9994 49.8131 42.9491C50.1721 42.9294 50.5288 43.0167 50.8382 43.1999C51.5362 43.609 51.8986 44.4153 51.7411 45.2089C51.5837 46.0025 50.9409 46.6094 50.1396 46.721C49.3382 46.8326 48.5541 46.4245 48.1857 45.7041C47.8968 45.08 47.4126 44.5668 46.8064 44.2421C45.8364 43.7357 43.4092 42.6679 42.0478 42.077C41.2885 41.7503 40.4051 41.9519 39.8628 42.5758C37.5377 45.2107 34.3661 46.9518 30.8948 47.4987C30.4795 47.5666 30.1573 47.8978 30.1006 48.3147C29.7463 50.6042 29.5857 52.7474 29.5135 54.1439C29.4909 54.8731 29.6998 55.5908 30.1101 56.194C30.3007 56.4945 30.4009 56.8433 30.3989 57.1991C30.4014 57.7575 30.1582 58.2887 29.7339 58.6517C29.0093 59.2589 27.9489 59.2428 27.2431 58.6137C26.5373 57.9847 26.3997 56.9331 26.92 56.1437C27.3089 55.585 27.5087 54.9165 27.49 54.2361C27.4387 53.1293 27.1518 50.4978 26.9846 49.0282C26.8873 48.2074 26.2704 47.5437 25.4589 47.3866C22.2381 46.7291 19.3185 45.0419 17.1407 42.5796C16.7772 42.1662 16.2538 41.9286 15.7034 41.9269C15.4455 41.9272 15.1904 41.9802 14.9538 42.0827C13.6238 42.6622 11.2488 43.7091 10.2665 44.2069C9.6296 44.5568 9.11607 45.0945 8.7959 45.7469C8.62842 46.0613 8.37463 46.3213 8.0644 46.4964C7.21784 46.9979 6.12853 46.77 5.55386 45.9714C4.97919 45.1727 5.10931 44.0675 5.85375 43.4241C6.23067 43.0959 6.71967 42.9258 7.2189 42.9491C7.9037 43.0075 8.5892 42.8451 9.17495 42.4855C10.1943 41.83 11.7656 40.7689 13.4642 39.4379C14.0956 38.9348 14.3422 38.0887 14.0798 37.3251C13.0355 34.1942 13.0355 30.8088 14.0798 27.6779C14.343 26.9139 14.0968 26.067 13.4652 25.5632C12.1703 24.5429 10.7463 23.5321 9.23765 22.5564ZM1.92265 32.1695C2.03775 31.5404 2.45987 31.0105 3.04736 30.7577C3.63485 30.5049 4.30984 30.5627 4.8458 30.9117C5.40759 31.3037 6.08105 31.5037 6.76575 31.4817C7.90575 31.4304 9.5768 31.3145 11.4559 31.0684C11.417 31.5434 11.3961 32.0184 11.3961 32.4991C11.3961 32.9798 11.4179 33.4577 11.4569 33.9317C9.64425 33.6961 7.99885 33.5764 6.8579 33.5166C6.12365 33.4994 5.40202 33.7094 4.79165 34.1179C3.9899 34.5892 2.9669 34.4285 2.34825 33.7341C1.9804 33.3021 1.82561 32.7279 1.92645 32.1695H1.92265Z" fill="black"/>
</svg>
