<svg width="63" height="58" viewBox="0 0 63 58" fill="none" xmlns="http://www.w3.org/2000/svg">
<rect x="5" y="15" width="58" height="40" rx="4" fill="#008940" fill-opacity="0.5"/>
<path d="M56.8758 11.6562C56.872 11.6562 56.8682 11.6562 56.8645 11.6562H53.0533V10.3521C53.0738 9.8359 52.7399 9.37201 52.2438 9.22783C49.5979 8.53445 46.8733 8.18677 44.138 8.19352C39.641 8.19352 33.5139 9.20534 28.9831 13.8148C24.4861 9.16037 18.314 8.19352 13.8283 8.19352C11.093 8.18677 8.36835 8.53445 5.72243 9.22783C5.22635 9.37201 4.89245 9.8359 4.91297 10.3521V11.645H1.12425C0.503382 11.645 0 12.1483 0 12.7692V48.6777C0 49.2986 0.503382 49.802 1.12425 49.802C1.31734 49.8014 1.50706 49.7511 1.67513 49.6558C1.78756 49.5996 13.03 43.45 28.7246 47.4073H28.8932H28.9944C29.084 47.4181 29.1745 47.4181 29.2642 47.4073C45.0037 43.4162 56.2462 49.5546 56.3136 49.6558C56.6614 49.8566 57.0901 49.8566 57.4379 49.6558C57.7836 49.4563 57.9976 49.0882 58 48.689V12.7805C58 12.1596 57.4968 11.6562 56.8758 11.6562ZM2.2485 46.8902V13.9047H4.93545V42.1009C4.92843 42.7217 5.42605 43.2307 6.04691 43.2378C6.10762 43.2385 6.16833 43.2342 6.22834 43.2251C8.55413 42.87 10.9023 42.6821 13.2549 42.663C16.5138 42.6065 19.7591 43.0967 22.856 44.1133C15.8624 43.2675 8.76872 44.2234 2.2485 46.8902ZM13.2549 40.4257C11.21 40.4304 9.16755 40.5618 7.13898 40.8192V11.2402C9.32789 10.7526 11.5632 10.5037 13.8058 10.4982C18.0105 10.4982 23.8116 11.4651 27.8364 16.007L27.8701 44.0121C25.5317 42.4831 20.9672 40.4257 13.2549 40.4257ZM30.1186 16.007C34.1434 11.5101 39.9446 10.4982 44.1493 10.4982C46.3917 10.5048 48.627 10.7536 50.816 11.2402V40.8192C48.7989 40.5594 46.7676 40.4242 44.7339 40.4145C37.0665 40.4145 32.4908 42.4719 30.1186 44.0008V16.007ZM55.7403 46.8902C49.2061 44.2161 42.0961 43.2601 35.0878 44.1133C38.1993 43.093 41.4601 42.6027 44.7339 42.663C47.1012 42.6762 49.4646 42.8603 51.8054 43.2139C52.4192 43.307 52.9925 42.8849 53.0856 42.271C53.0948 42.211 53.099 42.1503 53.0983 42.0896V13.9047H55.7852L55.7403 46.8902Z" fill="black"/>
</svg>
