<svg width="42" height="42" viewBox="0 0 42 42" fill="none" xmlns="http://www.w3.org/2000/svg">
<path d="M10.4788 17.1445H7.87501C7.54803 17.1445 7.23442 17.2747 7.00351 17.5063C6.77259 17.7379 6.64347 18.0519 6.64454 18.3789L6.66267 27.726C6.66267 28.4055 7.21359 28.9565 7.89314 28.9565C8.57268 28.9565 9.1236 28.4055 9.1236 27.726V24.888C9.6267 24.8854 10.1642 24.8832 10.4788 24.8832C12.6408 24.8832 14.3998 23.1474 14.3998 21.0139C14.3998 18.8803 12.6408 17.1445 10.4788 17.1445ZM10.4788 22.4223C10.1614 22.4223 9.62194 22.4245 9.11688 22.4271C9.11425 21.9032 9.11196 21.3391 9.11196 21.0139C9.11196 20.7355 9.11056 20.153 9.10909 19.6055H10.4787C11.2701 19.6055 11.9388 20.2504 11.9388 21.0139C11.9388 21.7773 11.2702 22.4223 10.4788 22.4223Z" fill="black"/>
<path d="M20.945 17.1445H18.375C18.0483 17.1445 17.7349 17.2745 17.5041 17.5057C17.2732 17.737 17.1439 18.0506 17.1445 18.3773C17.1445 18.3774 17.1628 27.4209 17.1629 27.4537C17.1641 27.7801 17.2949 28.0927 17.5266 28.3226C17.7571 28.5515 18.0687 28.6798 18.3934 28.6798H18.3981C18.4757 28.6794 20.3089 28.6725 21.0418 28.6597C23.8221 28.6111 25.8401 26.1939 25.8401 22.9121C25.84 19.4624 23.8729 17.1445 20.945 17.1445ZM20.9988 26.1991C20.6801 26.2047 20.1318 26.2092 19.6197 26.2125C19.6163 25.1437 19.6096 20.7162 19.6077 19.6055H20.945C23.2036 19.6055 23.3791 22.1365 23.3791 22.9122C23.3791 24.5276 22.6431 26.1704 20.9988 26.1991Z" fill="black"/>
<path d="M33.9497 19.5105C34.6292 19.5105 35.1802 18.9596 35.1802 18.28C35.1802 17.6005 34.6292 17.0495 33.9497 17.0495H30.1875C29.508 17.0495 28.957 17.6005 28.957 18.28V27.5625C28.957 28.242 29.508 28.793 30.1875 28.793C30.867 28.793 31.418 28.242 31.418 27.5625V24.0639H33.6509C34.3304 24.0639 34.8813 23.5129 34.8813 22.8334C34.8813 22.1539 34.3304 21.6029 33.6509 21.6029H31.418V19.5105H33.9497Z" fill="black"/>
<path d="M37.5703 11.8945H36.668V11.5435C36.668 9.96179 36.0686 8.45857 34.9804 7.31063L29.8695 1.91945C28.713 0.699645 27.0857 0 25.4047 0H9.02344C6.988 0 5.33203 1.65596 5.33203 3.69141V11.8945H4.42969C2.39425 11.8945 0.738281 13.5505 0.738281 15.5859V30.3516C0.738281 32.387 2.39425 34.043 4.42969 34.043H5.33203V38.3086C5.33203 40.344 6.988 42 9.02344 42H32.9766C35.012 42 36.668 40.344 36.668 38.3086V34.043H37.5703C39.6058 34.043 41.2617 32.387 41.2617 30.3516V15.5859C41.2617 13.5505 39.6058 11.8945 37.5703 11.8945ZM7.79297 3.69141C7.79297 3.01293 8.34496 2.46094 9.02344 2.46094H25.4047C26.4132 2.46094 27.3897 2.88069 28.0836 3.61266L33.1945 9.00383C33.8475 9.69257 34.207 10.5945 34.207 11.5435V11.8945H7.79297V3.69141ZM34.207 38.3086C34.207 38.9871 33.655 39.5391 32.9766 39.5391H9.02344C8.34496 39.5391 7.79297 38.9871 7.79297 38.3086V34.043H34.207V38.3086ZM38.8008 30.3516C38.8008 31.03 38.2488 31.582 37.5703 31.582H4.42969C3.75121 31.582 3.19922 31.03 3.19922 30.3516V15.5859C3.19922 14.9075 3.75121 14.3555 4.42969 14.3555H37.5703C38.2488 14.3555 38.8008 14.9075 38.8008 15.5859V30.3516Z" fill="black"/>
</svg>
